<svg xmlns="http://www.w3.org/2000/svg" viewBox="0 0 501 501"><path fill="#000000E6" d="M250.93.11C114.3.11 2.93 110.27.96 246.43c-2 138.29 110.19 252.87 248.49 253.67a248.3 248.3 0 0 0 120.38-30.05 5.86 5.86 0 0 0 1.08-9.52l-23.4-20.74a16.48 16.48 0 0 0-17.36-2.92 202.03 202.03 0 0 1-81.76 16.04c-111.75-1.37-202.04-94.35-200.26-206.1 1.76-110.33 92.06-199.55 202.8-199.55h202.83v360.51L338.68 305.52a8.49 8.49 0 0 0-12.43 1.31 94.23 94.23 0 0 1-81.98 37.36c-46.36-3.2-83.92-40.52-87.4-86.86-4.15-55.28 39.65-101.58 94.07-101.58 49.2 0 89.74 37.88 93.97 86.01a16.79 16.79 0 0 0 5.53 11.13l29.97 26.57a5.85 5.85 0 0 0 9.63-3.3 142.22 142.22 0 0 0 2.07-35.95c-4.83-70.39-61.84-127.01-132.26-131.35-80.73-4.98-148.23 58.18-150.37 137.35-2.1 77.15 61.12 143.66 138.28 145.36 32.2.71 62.07-9.42 86.2-26.97l150.36 133.29c6.45 5.71 16.62 1.14 16.62-7.48V9.57a9.5 9.5 0 0 0-9.5-9.49h-240.5l-.01.03Z"/></svg>
