<svg xmlns="http://www.w3.org/2000/svg" viewBox="0 0 125 125"><circle cx="62.5" cy="62.5" r="62.5" fill="#fff"/><rect width="2" height="12" x="37" y="35.5" fill="#555" rx=".5" ry=".6"/><rect width="48" height="98" x="38.5" y="13.5" fill="#dcdcdc" stroke="#555" stroke-width="2" ry="7.8"/><path fill="#555" stroke="#555" stroke-width="2" d="M53.8 14.5h20v.5c0 .8-.7 1.5-1.5 1.5h-17c-.8 0-1.5-.7-1.5-1.5z"/><path fill="#959595" d="M62 54.2a4.8 4.8 0 0 0-4.8 4.8 4.8 4.8 0 0 0 3 4.5l-1 7.3h5.9L64 63.4a4.8 4.8 0 0 0 2.8-4.4 4.8 4.8 0 0 0-4.8-4.8z"/><path fill="#a1a1a1" d="M40.9 50.8a6 8.5 0 0 0-6 8.5 6 8.5 0 0 0 6 8.5 6 8.5 0 0 0 6-8.5 6 8.5 0 0 0-6-8.5zm0 4.3a3 4.2 0 0 1 3 4.2 3 4.2 0 0 1-3 4.2 3 4.2 0 0 1-3-4.2 3 4.2 0 0 1 3-4.2z"/><path fill="#a1a1a1" d="M46.4 56v5.7l19.5.2.1-.2a4.8 4.8 0 0 0-.2-5.7H46.4z"/><path fill="#b7b7b7" d="M46.4 56h13.3c1 0 1.2.9 1.2.9v2.4H46.4Z"/><path fill="#b7b7b7" d="M41.5 50.8a6 8.5 0 0 0-6 8.5 6 8.5 0 0 0 6 8.5 6 8.5 0 0 0 6.1-8.5 6 8.5 0 0 0-6-8.5zm0 4.3a3 4.2 0 0 1 3 4.2 3 4.2 0 0 1-3 4.2 3 4.2 0 0 1-3-4.2 3 4.2 0 0 1 3-4.2z"/></svg>
